<svg width="28" height="28" viewBox="0 0 28 28" fill="none" xmlns="http://www.w3.org/2000/svg">
<path d="M14 25.6668C12.1906 25.7107 10.4376 25.0353 9.12542 23.7887C7.81322 22.5421 7.04889 20.8261 7 19.0168V7.15178C7.03364 5.84384 7.58409 4.60249 8.53085 3.69945C9.47762 2.79641 10.7436 2.30524 12.0517 2.33345C13.3617 2.30211 14.6307 2.79189 15.58 3.69526C16.5293 4.59863 17.0814 5.84177 17.115 7.15178V19.0284C17.0665 19.8201 16.7178 20.5635 16.14 21.1069C15.5623 21.6503 14.799 21.9529 14.0058 21.9529C13.2127 21.9529 12.4494 21.6503 11.8716 21.1069C11.2939 20.5635 10.9452 19.8201 10.8967 19.0284V8.07345C10.8967 7.76403 11.0196 7.46728 11.2384 7.24849C11.4572 7.0297 11.7539 6.90678 12.0633 6.90678C12.3728 6.90678 12.6695 7.0297 12.8883 7.24849C13.1071 7.46728 13.23 7.76403 13.23 8.07345V19.0284C13.2533 19.2178 13.345 19.3922 13.4879 19.5186C13.6308 19.645 13.815 19.7148 14.0058 19.7148C14.1966 19.7148 14.3809 19.645 14.5238 19.5186C14.6667 19.3922 14.7584 19.2178 14.7817 19.0284V7.15178C14.7454 6.46159 14.4384 5.81356 13.9273 5.34832C13.4162 4.88308 12.7422 4.63818 12.0517 4.66678C11.3631 4.64133 10.6921 4.88763 10.1836 5.35255C9.67499 5.81746 9.36961 6.46369 9.33333 7.15178V19.0168C9.3819 20.2073 9.90029 21.33 10.775 22.1391C11.6497 22.9482 12.8093 23.3777 14 23.3334C15.1907 23.3777 16.3503 22.9482 17.225 22.1391C18.0997 21.33 18.6181 20.2073 18.6667 19.0168V7.15178C18.6667 6.84236 18.7896 6.54562 19.0084 6.32682C19.2272 6.10803 19.5239 5.98511 19.8333 5.98511C20.1428 5.98511 20.4395 6.10803 20.6583 6.32682C20.8771 6.54562 21 6.84236 21 7.15178V19.0168C20.9511 20.8261 20.1868 22.5421 18.8746 23.7887C17.5624 25.0353 15.8094 25.7107 14 25.6668Z" fill="#2C323F"/>
</svg>
